HIERARCHY
ROOT Hips
{
	OFFSET 0.000000 0.000000 0.000000
	CHANNELS 6 Xposition Yposition Zposition Zrotation Yrotation Xrotation 
	JOINT LHipJoint
	{
		OFFSET 0.000000 0.000000 0.000000
		CHANNELS 3 Zrotation Yrotation Xrotation
		JOINT LeftUpLeg
		{
			OFFSET 1.363060 -1.794630 0.839290
			CHANNELS 3 Zrotation Yrotation Xrotation
			JOINT LeftLeg
			{
				OFFSET 2.448110 -6.726130 0.000000
				CHANNELS 3 Zrotation Yrotation Xrotation
				JOINT LeftFoot
				{
					OFFSET 2.562200 -7.039590 0.000000
					CHANNELS 3 Zrotation Yrotation Xrotation
					JOINT LeftToeBase
					{
						OFFSET 0.157640 -0.433110 2.322550
						CHANNELS 3 Zrotation Yrotation Xrotation
						End Site
						{
							OFFSET 0.000000 0.000000 0.000000
						}
					}
				}
			}
		}
	}
	JOINT RHipJoint
	{
		OFFSET 0.000000 0.000000 0.000000
		CHANNELS 3 Zrotation Yrotation Xrotation
		JOINT RightUpLeg
		{
			OFFSET -1.305520 -1.794630 0.839290
			CHANNELS 3 Zrotation Yrotation Xrotation
			JOINT RightLeg
			{
				OFFSET -2.542530 -6.985550 0.000000
				CHANNELS 3 Zrotation Yrotation Xrotation
				JOINT RightFoot
				{
					OFFSET -2.568260 -7.056230 0.000000
					CHANNELS 3 Zrotation Yrotation Xrotation
					JOINT RightToeBase
					{
						OFFSET -0.164730 -0.452590 2.363150
						CHANNELS 3 Zrotation Yrotation Xrotation
						End Site
						{
							OFFSET 0.000000 0.000000 0.000000
						}
					}
				}
			}
		}
	}
	JOINT LowerBack
	{
		OFFSET 0.000000 0.000000 0.000000
		CHANNELS 3 Zrotation Yrotation Xrotation
		JOINT Spine
		{
			OFFSET 0.028270 2.035590 -0.193380
			CHANNELS 3 Zrotation Yrotation Xrotation
			JOINT Spine1
			{
				OFFSET 0.056720 2.048850 -0.042750
				CHANNELS 3 Zrotation Yrotation Xrotation
				JOINT Neck
				{
					OFFSET 0.000000 0.000000 0.000000
					CHANNELS 3 Zrotation Yrotation Xrotation
					JOINT Neck1
					{
						OFFSET -0.054170 1.746240 0.172020
						CHANNELS 3 Zrotation Yrotation Xrotation
						JOINT Head
						{
							OFFSET 0.104070 1.761360 -0.123970
							CHANNELS 3 Zrotation Yrotation Xrotation
							End Site
							{
								OFFSET 0.000000 0.000000 0.000000
							}
						}
					}
				}
				JOINT LeftShoulder
				{
					OFFSET 0.000000 0.000000 0.000000
					CHANNELS 3 Zrotation Yrotation Xrotation
					JOINT LeftArm
					{
						OFFSET 3.362410 1.200890 -0.311210
						CHANNELS 3 Zrotation Yrotation Xrotation
						JOINT LeftForeArm
						{
							OFFSET 4.983000 -0.000000 -0.000000
							CHANNELS 3 Zrotation Yrotation Xrotation
							JOINT LeftHand
							{
								OFFSET 3.483560 -0.000000 -0.000000
								CHANNELS 3 Zrotation Yrotation Xrotation
								JOINT LeftFingerBase
								{
									OFFSET 0.000000 0.000000 0.000000
									CHANNELS 3 Zrotation Yrotation Xrotation
									JOINT LeftHandIndex1
									{
										OFFSET 0.715260 -0.000000 -0.000000
										CHANNELS 3 Zrotation Yrotation Xrotation
										End Site
										{
											OFFSET 0.000000 0.000000 0.000000
										}
									}
								}
								JOINT LThumb
								{
									OFFSET 0.000000 0.000000 0.000000
									CHANNELS 3 Zrotation Yrotation Xrotation
									End Site
									{
										OFFSET 0.000000 0.000000 0.000000
									}
								}
							}
						}
					}
				}
				JOINT RightShoulder
				{
					OFFSET 0.000000 0.000000 0.000000
					CHANNELS 3 Zrotation Yrotation Xrotation
					JOINT RightArm
					{
						OFFSET -3.136600 1.374050 -0.404650
						CHANNELS 3 Zrotation Yrotation Xrotation
						JOINT RightForeArm
						{
							OFFSET -5.241900 -0.000000 -0.000000
							CHANNELS 3 Zrotation Yrotation Xrotation
							JOINT RightHand
							{
								OFFSET -3.444170 -0.000000 -0.000000
								CHANNELS 3 Zrotation Yrotation Xrotation
								JOINT RightFingerBase
								{
									OFFSET 0.000000 0.000000 0.000000
									CHANNELS 3 Zrotation Yrotation Xrotation
									JOINT RightHandIndex1
									{
										OFFSET -0.622530 -0.000000 -0.000000
										CHANNELS 3 Zrotation Yrotation Xrotation
										End Site
										{
											OFFSET 0.000000 0.000000 0.000000
										}
									}
								}
								JOINT RThumb
								{
									OFFSET 0.000000 0.000000 0.000000
									CHANNELS 3 Zrotation Yrotation Xrotation
									End Site
									{
										OFFSET 0.000000 0.000000 0.000000
									}
								}
							}
						}
					}
				}
			}
		}
	}
}
MOTION
Frames: 12
Frame Time: 0.008333
0.618458 17.108157 1.643027 16.406619 -26.264653 -2.670705 -8.720579 0.655424 7.586845 -16.623243 -24.916894 -11.518630 -4.124394 -0.706218 1.012718 -1.003185 -6.911200 11.746911 -1.526900 0.000000 -45.329199 11.655802 -0.558684 -5.656503 -19.000237 -40.117640 10.626236 0.407442 0.024130 0.822207 -3.139612 -20.445650 8.564915 -6.544100 -0.000000 -71.305300 -0.632598 1.439647 -3.651896 0.364225 1.631675 -4.208890 0.621953 1.603277 -4.133993 -10.523986 4.667199 3.477497 -1.141777 -0.253468 3.064208 0.000000 0.000000 0.000000 -1.294816 2.898321 -10.820720 -107.402284 -60.187193 54.113507 178.698898 -77.768222 179.783936 14.237321 -8.722719 -1.229741 -0.152975 0.993594 -0.000000 0.000000 0.000000 0.000000 0.000000 0.000000 0.000000 -13.845862 10.045681 4.550705 1.040424 21.092504 -57.907467 -1.715533 12.514679 -0.140641 -18.837163 3.835544 -0.745025 0.497946 -0.537262 -0.000000 0.000000 0.000000 0.000000 0.000000 0.000000 0.000000 
0.601477 17.109497 1.648090 16.655815 -25.540512 -2.663520 -8.738168 0.560996 7.585963 -16.895323 -25.135730 -11.296605 -4.189289 -0.733192 0.710197 -1.040192 -7.230097 12.119606 -1.651699 0.000000 -45.326100 11.642550 -0.573832 -5.664166 -19.328867 -40.023630 10.869867 0.361914 -0.029095 0.984107 -3.155457 -20.466274 8.764190 -6.606301 0.000000 -71.646600 -0.562221 1.708268 -3.583675 0.478419 1.904499 -4.166598 1.137901 1.868937 -4.074864 -11.907347 5.439293 3.204181 -0.879719 -0.234248 2.993125 0.000000 0.000000 0.000000 -2.252135 3.515199 -10.966401 -108.123136 -59.635328 54.305872 178.623950 -77.724196 179.786570 14.155747 -8.791570 -1.228285 -0.137479 0.977403 -0.000000 0.000000 0.000000 0.000000 0.000000 0.000000 0.000000 -15.907324 10.819851 4.786766 -2.374874 20.369267 -67.953891 -2.012836 4.849605 -0.121351 -19.091358 5.948607 -1.123448 0.539877 -0.542467 -0.000000 0.000000 0.000000 0.000000 0.000000 0.000000 0.000000 
0.579960 17.113245 1.654251 16.814036 -24.863408 -2.606669 -8.716856 0.498423 7.613140 -17.087178 -25.336829 -11.109495 -4.251791 -0.762610 0.385513 -1.079171 -7.576531 12.521671 -1.792000 -0.000000 -45.367101 11.669639 -0.604141 -5.648784 -19.509256 -39.961919 11.053217 0.315982 -0.061231 1.046916 -3.196391 -20.678155 8.972566 -6.744301 0.000000 -71.858100 -0.641877 1.934177 -3.581429 0.558947 2.148971 -4.171687 1.630924 2.107116 -4.122460 -12.799452 6.637810 3.083265 -0.632983 -0.218388 2.966315 0.000000 0.000000 0.000000 -2.942362 3.927365 -11.028904 -108.879609 -58.977961 54.504460 178.555504 -77.714520 179.788002 14.046630 -8.930132 -1.234065 -0.121879 0.969018 -0.000000 0.000000 0.000000 0.000000 0.000000 0.000000 0.000000 -17.441793 11.967487 4.929264 -5.006639 18.157361 -73.814888 -2.176503 -0.157211 -0.111529 -20.614316 6.149414 -1.246288 0.609081 -0.503135 -0.000000 0.000000 0.000000 0.000000 0.000000 0.000000 0.000000 
0.555314 17.118528 1.660903 16.886760 -24.188531 -2.515104 -8.664084 0.459146 7.663347 -17.210133 -25.549537 -10.934994 -4.311617 -0.792040 0.050092 -1.119154 -7.948416 12.945650 -1.947600 -0.000000 -45.448600 11.725258 -0.642257 -5.633261 -19.601263 -40.000481 11.217139 0.275544 -0.077229 1.044588 -3.253090 -21.027155 9.192229 -6.939800 0.000000 -71.973900 -0.839176 2.121444 -3.614056 0.587423 2.362109 -4.198605 1.986758 2.315827 -4.222711 -13.221271 7.659802 3.036990 -0.434933 -0.206651 2.961609 0.000000 0.000000 0.000000 -3.293363 4.124678 -11.058031 -109.655007 -58.273411 54.713955 178.495596 -77.701698 179.788567 13.913047 -9.127933 -1.245495 -0.107451 0.967331 -0.000000 0.000000 0.000000 0.000000 0.000000 0.000000 0.000000 -18.444389 12.925094 4.969334 -6.779448 15.773110 -74.716084 -2.167980 -3.059308 -0.107604 -22.599263 4.674868 -1.050410 0.693829 -0.427305 0.000000 0.000000 0.000000 0.000000 0.000000 0.000000 0.000000 
0.528834 17.125015 1.667685 16.884006 -23.493258 -2.396491 -8.591702 0.435021 7.732521 -17.268547 -25.795570 -10.764107 -4.366408 -0.819226 -0.288991 -1.158227 -8.334183 13.385419 -2.115400 0.000000 -45.550000 11.794118 -0.682713 -5.633493 -19.640362 -40.173920 11.381866 0.245435 -0.081590 1.003344 -3.317521 -21.464883 9.430423 -7.178200 0.000000 -72.026401 -1.105602 2.271170 -3.660985 0.577280 2.539748 -4.226571 2.208752 2.487577 -4.326299 -13.350928 8.091564 3.002983 -0.254961 -0.196382 2.961619 0.000000 0.000000 0.000000 -3.378649 4.125383 -11.071341 -110.377904 -57.592458 54.890464 178.440651 -77.625433 179.788534 13.773649 -9.356053 -1.260391 -0.094818 0.969967 -0.000000 0.000000 0.000000 0.000000 0.000000 0.000000 0.000000 -19.321967 13.374644 4.890354 -7.004420 13.834828 -73.717629 -2.162027 -2.921861 -0.115703 -24.298465 2.045645 -0.530677 0.762118 -0.346410 0.000000 0.000000 0.000000 0.000000 0.000000 0.000000 0.000000 
0.501819 17.132672 1.674729 16.818370 -22.788156 -2.251628 -8.510814 0.423889 7.819758 -17.261620 -26.088699 -10.603820 -4.411673 -0.841723 -0.630839 -1.193231 -8.712407 13.832821 -2.289400 -0.000000 -45.650700 11.861595 -0.717424 -5.658370 -19.645437 -40.489648 11.546334 0.229421 -0.075947 0.943723 -3.381048 -21.941686 9.695415 -7.445100 -0.000000 -72.047200 -1.391324 2.361444 -3.714650 0.563512 2.659172 -4.235089 2.413909 2.598047 -4.349220 -13.463401 7.825278 2.885575 -0.073017 -0.184821 2.939048 0.000000 0.000000 0.000000 -3.369715 4.027190 -11.104061 -110.975645 -56.991702 54.956045 178.375750 -77.400705 179.788259 13.650363 -9.585849 -1.276496 -0.083247 0.972845 -0.000000 0.000000 0.000000 0.000000 0.000000 0.000000 0.000000 -20.300956 13.187226 4.821770 -6.982594 12.874901 -74.818769 -2.304744 -2.418355 -0.124457 -25.703098 1.288015 -0.379967 0.807598 -0.328027 0.000000 0.000000 0.000000 0.000000 0.000000 0.000000 0.000000 
0.475608 17.141572 1.682191 16.701778 -22.093522 -2.079344 -8.432014 0.423893 7.923063 -17.187541 -26.434073 -10.466103 -4.443223 -0.857840 -0.970203 -1.221263 -9.057089 14.274070 -2.459800 -0.000000 -45.712900 11.915410 -0.741702 -5.711436 -19.626348 -40.936925 11.700650 0.230567 -0.062469 0.885939 -3.435327 -22.405703 9.990607 -7.722700 -0.000001 -72.051900 -1.653558 2.379694 -3.769709 0.566091 2.706195 -4.216206 2.658027 2.633149 -4.257774 -13.696647 6.882605 2.652790 0.117255 -0.170950 2.883955 0.000000 0.000000 0.000000 -3.371677 3.899236 -11.168900 -111.398676 -56.505986 54.868606 178.294072 -76.990529 179.787853 13.563692 -9.790639 -1.292429 -0.072892 0.973853 -0.000000 0.000000 0.000000 0.000000 0.000000 0.000000 0.000000 -21.467776 12.368549 4.825900 -7.402782 13.069136 -78.415534 -2.571075 -2.931988 -0.125982 -26.803428 3.280231 -0.899442 0.836743 -0.385828 0.000000 0.000000 0.000000 0.000000 0.000000 0.000000 0.000000 
0.451730 17.152192 1.690002 16.539939 -21.435338 -1.878184 -8.368332 0.431166 8.037038 -17.039083 -26.821257 -10.361508 -4.457188 -0.866795 -1.301844 -1.240201 -9.341911 14.702599 -2.616300 -0.000000 -45.725800 11.945035 -0.759398 -5.787801 -19.565130 -41.465161 11.826503 0.247816 -0.045240 0.840710 -3.477931 -22.833977 10.323104 -8.004999 0.000000 -72.068101 -1.852899 2.338230 -3.824494 0.579365 2.687648 -4.175389 2.872220 2.599243 -4.081800 -13.976794 5.209313 2.361570 0.308912 -0.156019 2.810917 0.000000 0.000000 0.000000 -3.379363 3.738717 -11.242793 -111.611959 -56.166076 54.646160 178.206835 -76.422639 179.787066 13.538258 -9.939751 -1.307650 -0.066362 0.974417 -0.000000 0.000000 0.000000 0.000000 0.000000 0.000000 0.000000 -22.830994 10.925066 4.807786 -7.233945 14.247361 -83.929281 -2.961138 -2.213248 -0.132563 -27.226093 6.686552 -1.793850 0.833254 -0.505553 0.000000 0.000000 0.000000 0.000000 0.000000 0.000000 0.000000 
0.431343 17.164621 1.698232 16.333527 -20.840190 -1.647806 -8.323246 0.445022 8.157294 -16.813786 -27.236143 -10.299091 -4.452798 -0.869418 -1.616041 -1.249193 -9.541141 15.104283 -2.746000 0.000000 -45.674700 11.950686 -0.776272 -5.878421 -19.449734 -42.027416 11.903682 0.280293 -0.027743 0.821788 -3.505098 -23.193319 10.689575 -8.277100 0.000000 -72.111800 -1.985649 2.256390 -3.880404 0.569235 2.618562 -4.134777 2.902039 2.516156 -3.908603 -14.024891 2.998239 2.116297 0.434677 -0.145616 2.747912 0.000000 0.000000 0.000000 -3.247300 3.486158 -11.297297 -111.629682 -55.941785 54.320306 178.134636 -75.786767 179.785620 13.577892 -10.029178 -1.322809 -0.066201 0.978010 -0.000000 0.000000 0.000000 0.000000 0.000000 0.000000 0.000000 -23.873116 9.010086 4.657629 -6.257502 16.292368 -87.805208 -3.296779 0.756173 -0.149976 -26.758913 9.233864 -2.417533 0.801299 -0.627463 -0.000000 0.000000 0.000000 0.000000 0.000000 0.000000 0.000000 
0.414905 17.178546 1.707328 16.079265 -20.344755 -1.390724 -8.288250 0.470882 8.285225 -16.514126 -27.661310 -10.288046 -4.431758 -0.867861 -1.906683 -1.248442 -9.632157 15.462207 -2.836000 0.000000 -45.565000 11.943934 -0.797580 -5.967728 -19.272603 -42.580959 11.907781 0.326778 -0.010828 0.841206 -3.512239 -23.446592 11.078327 -8.518000 0.000001 -72.205800 -2.084391 2.142281 -3.954317 0.515058 2.509455 -4.119511 2.691907 2.400686 -3.814685 -13.626318 0.840072 1.991907 0.443366 -0.144022 2.716633 0.000000 0.000000 0.000000 -2.858552 3.082066 -11.310970 -111.483444 -55.756751 53.871150 178.090202 -75.168599 179.783317 13.669868 -10.078549 -1.339480 -0.072676 0.987019 -0.000000 0.000000 0.000000 0.000000 0.000000 0.000000 0.000000 -24.072453 7.091798 4.382134 -5.244510 18.558896 -86.974299 -3.422319 4.834052 -0.172045 -26.100401 9.861936 -2.524785 0.773094 -0.702769 -0.000000 0.000000 0.000000 0.000000 0.000000 0.000000 0.000000 
0.402432 17.194058 1.717488 15.778596 -19.998455 -1.108768 -8.259116 0.513958 8.420639 -16.138500 -28.069436 -10.342203 -4.394019 -0.863322 -2.170024 -1.237947 -9.599429 15.766274 -2.876699 0.000000 -45.404100 11.933250 -0.827671 -6.037623 -19.004861 -43.056507 11.805859 0.382523 0.005179 0.901225 -3.500589 -23.588423 11.477847 -8.720100 -0.000000 -72.359400 -2.167292 1.996396 -4.065429 0.435580 2.365861 -4.149697 2.337993 2.259243 -3.860983 -12.813758 -0.607887 2.038082 0.375476 -0.149788 2.732633 0.000000 0.000000 0.000000 -2.277353 2.521921 -11.238086 -111.147359 -55.563693 53.236931 178.073966 -74.607107 179.779868 13.815632 -10.094821 -1.358653 -0.084496 1.001562 -0.000000 0.000000 0.000000 0.000000 0.000000 0.000000 0.000000 -23.592129 5.772854 3.982258 -3.875140 19.987537 -81.284082 -3.328909 10.333523 -0.201352 -25.925923 8.053097 -2.078177 0.761724 -0.710957 -0.000000 0.000000 0.000000 0.000000 0.000000 0.000000 0.000000 
0.394062 17.211398 1.728061 15.450611 -19.858641 -0.808301 -8.244750 0.574738 8.554382 -15.690265 -28.423045 -10.475206 -4.336581 -0.853970 -2.395014 -1.216558 -9.438509 16.008414 -2.864199 0.000000 -45.195500 11.914453 -0.864111 -6.077423 -18.614607 -43.367384 11.571721 0.439044 0.018956 1.000460 -3.476334 -23.638682 11.876588 -8.886700 0.000000 -72.557000 -2.207801 1.809160 -4.213462 0.370262 2.180436 -4.216298 1.998363 2.080634 -4.001876 -11.837908 -1.314778 2.204406 0.282576 -0.159026 2.782063 0.000000 0.000000 0.000000 -1.707167 1.918793 -11.075606 -110.603947 -55.400257 52.406447 178.075315 -74.085514 179.775228 14.027364 -10.073483 -1.380352 -0.099898 1.019019 -0.000000 0.000000 0.000000 0.000000 0.000000 0.000000 0.000000 -22.803555 5.084171 3.540980 -2.472842 20.550718 -74.996676 -3.131008 16.695825 -0.229888 -25.769710 5.846055 -1.540818 0.731848 -0.702242 -0.000000 0.000000 0.000000 0.000000 0.000000 0.000000 0.000000 
